HIERARCHY
ROOT hip
{
	OFFSET 0.000000 0.000000 0.000000
	CHANNELS 6 Xposition Yposition Zposition Zrotation Yrotation Xrotation 
	JOINT lhipjoint
	{
		OFFSET 0.000000 0.000000 0.000000
		CHANNELS 3 Zrotation Yrotation Xrotation
		JOINT lfemur
		{
			OFFSET 1.363060 -1.794630 0.839290
			CHANNELS 3 Zrotation Yrotation Xrotation
			JOINT ltibia
			{
				OFFSET 2.448110 -6.726130 0.000000
				CHANNELS 3 Zrotation Yrotation Xrotation
				JOINT lfoot
				{
					OFFSET 2.562200 -7.039590 0.000000
					CHANNELS 3 Zrotation Yrotation Xrotation
					JOINT ltoes
					{
						OFFSET 0.157640 -0.433110 2.322550
						CHANNELS 3 Zrotation Yrotation Xrotation
						End Site
						{
							OFFSET 0.000000 0.000000 0.000000
						}
					}
				}
			}
		}
	}
	JOINT rhipjoint
	{
		OFFSET 0.000000 0.000000 0.000000
		CHANNELS 3 Zrotation Yrotation Xrotation
		JOINT rfemur
		{
			OFFSET -1.305520 -1.794630 0.839290
			CHANNELS 3 Zrotation Yrotation Xrotation
			JOINT rtibia
			{
				OFFSET -2.542530 -6.985550 0.000000
				CHANNELS 3 Zrotation Yrotation Xrotation
				JOINT rfoot
				{
					OFFSET -2.568260 -7.056230 0.000000
					CHANNELS 3 Zrotation Yrotation Xrotation
					JOINT rtoes
					{
						OFFSET -0.164730 -0.452590 2.363150
						CHANNELS 3 Zrotation Yrotation Xrotation
						End Site
						{
							OFFSET 0.000000 0.000000 0.000000
						}
					}
				}
			}
		}
	}
	JOINT lowerback
	{
		OFFSET 0.000000 0.000000 0.000000
		CHANNELS 3 Zrotation Yrotation Xrotation
		JOINT upperback
		{
			OFFSET 0.028270 2.035590 -0.193380
			CHANNELS 3 Zrotation Yrotation Xrotation
			JOINT thorax
			{
				OFFSET 0.056720 2.048850 -0.042750
				CHANNELS 3 Zrotation Yrotation Xrotation
				JOINT lowerneck
				{
					OFFSET 0.000000 0.000000 0.000000
					CHANNELS 3 Zrotation Yrotation Xrotation
					JOINT upperneck
					{
						OFFSET -0.054170 1.746240 0.172020
						CHANNELS 3 Zrotation Yrotation Xrotation
						JOINT head
						{
							OFFSET 0.104070 1.761360 -0.123970
							CHANNELS 3 Zrotation Yrotation Xrotation
							End Site
							{
								OFFSET 0.000000 0.000000 0.000000
							}
						}
					}
				}
				JOINT lclavicle
				{
					OFFSET 0.000000 0.000000 0.000000
					CHANNELS 3 Zrotation Yrotation Xrotation
					JOINT lhumerus
					{
						OFFSET 3.362410 1.200890 -0.311210
						CHANNELS 3 Zrotation Yrotation Xrotation
						JOINT lradius
						{
							OFFSET 4.983000 -0.000000 -0.000000
							CHANNELS 3 Zrotation Yrotation Xrotation
							JOINT lwrist
							{
								OFFSET 3.483560 -0.000000 -0.000000
								CHANNELS 3 Zrotation Yrotation Xrotation
								JOINT lhand
								{
									OFFSET 0.000000 0.000000 0.000000
									CHANNELS 3 Zrotation Yrotation Xrotation
									JOINT lfingers
									{
										OFFSET 0.715260 -0.000000 -0.000000
										CHANNELS 3 Zrotation Yrotation Xrotation
										End Site
										{
											OFFSET 0.000000 0.000000 0.000000
										}
									}
								}
								JOINT lthumb
								{
									OFFSET 0.000000 0.000000 0.000000
									CHANNELS 3 Zrotation Yrotation Xrotation
									End Site
									{
										OFFSET 0.000000 0.000000 0.000000
									}
								}
							}
						}
					}
				}
				JOINT rclavicle
				{
					OFFSET 0.000000 0.000000 0.000000
					CHANNELS 3 Zrotation Yrotation Xrotation
					JOINT rhumerus
					{
						OFFSET -3.136600 1.374050 -0.404650
						CHANNELS 3 Zrotation Yrotation Xrotation
						JOINT rradius
						{
							OFFSET -5.241900 -0.000000 -0.000000
							CHANNELS 3 Zrotation Yrotation Xrotation
							JOINT rwrist
							{
								OFFSET -3.444170 -0.000000 -0.000000
								CHANNELS 3 Zrotation Yrotation Xrotation
								JOINT rhand
								{
									OFFSET 0.000000 0.000000 0.000000
									CHANNELS 3 Zrotation Yrotation Xrotation
									JOINT rfingers
									{
										OFFSET -0.622530 -0.000000 -0.000000
										CHANNELS 3 Zrotation Yrotation Xrotation
										End Site
										{
											OFFSET 0.000000 0.000000 0.000000
										}
									}
								}
								JOINT rthumb
								{
									OFFSET 0.000000 0.000000 0.000000
									CHANNELS 3 Zrotation Yrotation Xrotation
									End Site
									{
										OFFSET 0.000000 0.000000 0.000000
									}
								}
							}
						}
					}
				}
			}
		}
	}
}
MOTION
Frames: 12
Frame Time: 0.008333
0.995190 17.502356 -3.260415 -174.698346 -14.238687 161.534664 7.424023 1.737873 -1.360944 -13.004421 4.470409 9.526798 2.527403 8.580010 28.099449 1.172362 2.045890 17.431349 1.809200 -8.456700 -24.110000 -12.758656 -2.755560 -5.863443 40.181430 -10.148362 16.638746 -2.228481 -7.276177 23.206717 4.075127 -15.379262 -0.536158 -0.078800 -1.810400 4.981900 1.774409 -0.979223 17.949377 0.642639 -1.483105 -2.345270 4.399321 -0.648974 1.042311 -5.723181 -5.311601 -13.919090 6.188960 -6.976768 7.415919 4.100000 -3.212600 4.293600 -7.564034 -5.123976 2.886366 -2.188787 -6.227870 2.951763 58.278973 -51.982018 -43.734980 0.608060 -3.516988 -82.558076 19.055385 -10.576600 -3.830800 -7.125000 0.000000 0.000000 -3.196200 19.922500 1.918800 5.728227 5.515543 3.726183 18.743080 2.645984 -11.603158 -80.450807 55.761316 -53.345677 1.059893 -1.132890 -24.311665 -30.008939 6.602947 -4.840400 7.125000 0.000000 0.000000 -2.630800 -20.421800 -1.549100 
1.006435 17.498276 -3.260415 -174.694340 -14.395837 161.543718 7.432480 1.737307 -1.375036 -12.927208 4.700038 9.792580 2.545287 8.608038 28.216933 1.194907 1.924759 17.269763 1.790300 -8.414800 -23.981300 -12.760168 -2.758740 -5.844006 40.281161 -10.055823 16.538427 -2.256228 -7.330108 23.374083 4.130881 -15.538588 -0.749128 -0.081300 -1.838900 5.060600 1.636012 -0.992310 17.812971 0.634176 -1.516519 -2.356604 4.603253 -0.662451 1.006164 -5.800119 -5.399967 -13.938866 6.156175 -7.079912 7.478752 4.088500 -3.268800 4.372400 -7.508051 -5.219000 2.940075 0.192700 -6.771378 1.805790 57.977624 -51.770274 -43.392153 0.693191 -3.714352 -83.082998 18.750967 -10.949140 -3.924500 -7.125000 0.000000 0.000000 -3.281000 19.627400 1.991500 5.818630 5.600640 3.581308 16.141958 3.614756 -13.450574 -80.416845 55.895077 -53.452747 1.022202 -1.010516 -24.383617 -30.709072 7.049887 -5.161000 7.125000 0.000000 0.000000 -3.113400 -19.998000 -1.863600 
1.017082 17.493798 -3.259221 -174.668380 -14.541292 161.551254 7.438460 1.737042 -1.388820 -12.830691 4.916045 10.072499 2.553411 8.615768 28.269432 1.207764 1.828687 17.086264 1.785300 -8.403700 -23.947100 -12.764694 -2.764474 -5.820249 40.406664 -9.957510 16.424111 -2.284683 -7.388703 23.554405 4.183348 -15.688651 -0.965939 -0.083600 -1.864900 5.132500 1.521170 -1.005013 17.695503 0.628444 -1.544529 -2.370107 4.802197 -0.672212 0.953861 -5.880061 -5.491152 -13.979560 6.123673 -7.185193 7.554445 4.067600 -3.326800 4.476400 -7.421426 -5.325156 2.995336 2.505611 -7.292858 0.572042 57.596226 -51.559341 -42.907903 0.776279 -3.888516 -83.701464 18.289003 -11.209791 -3.945300 -7.125000 0.000000 0.000000 -3.489300 19.444400 2.132600 5.889263 5.701002 3.417433 13.567243 4.589582 -15.373930 -80.196941 56.042603 -53.341593 0.988472 -0.902416 -24.438505 -31.410919 7.447643 -5.473100 7.125000 0.000000 0.000000 -3.594800 -19.606800 -2.184400 
1.025541 17.488624 -3.258027 -174.647779 -14.690650 161.546346 7.442295 1.735606 -1.404084 -12.739096 5.145845 10.393145 2.548589 8.598711 28.241225 1.210822 1.751526 16.852965 1.783600 -8.400000 -23.935800 -12.768726 -2.769776 -5.796636 40.508945 -9.871692 16.308556 -2.317703 -7.454675 23.759572 4.231947 -15.829046 -1.161185 -0.087200 -1.904800 5.242600 1.413161 -1.027229 17.591103 0.625967 -1.584401 -2.383499 4.996230 -0.686473 0.890917 -5.971458 -5.565829 -14.010427 6.094322 -7.266547 7.632343 4.047600 -3.373100 4.576800 -7.312871 -5.434859 3.056801 4.722222 -7.794701 -0.757703 57.112756 -51.345297 -42.260859 0.850598 -4.035383 -84.396268 17.755395 -11.421433 -3.935600 -7.125000 0.000000 0.000000 -3.764100 19.295600 2.313800 5.940481 5.810359 3.235406 10.978685 5.600996 -17.321994 -79.759792 56.213092 -52.978307 0.959444 -0.808532 -24.548873 -32.084713 7.720491 -5.722100 7.125000 0.000000 0.000000 -4.061700 -19.339000 -2.493700 
1.032904 17.482653 -3.256634 -174.624409 -14.825509 161.544960 7.446285 1.733841 -1.421487 -12.652804 5.377741 10.733764 2.531303 8.555759 28.125830 1.195459 1.726394 16.589498 1.816900 -8.473800 -24.162600 -12.774342 -2.776107 -5.770020 40.637059 -9.734942 16.191530 -2.354367 -7.526951 23.989325 4.280653 -15.967536 -1.405242 -0.091000 -1.945700 5.355600 1.338882 -1.038800 17.485719 0.622592 -1.606772 -2.395261 5.136109 -0.687529 0.825972 -6.050206 -5.659027 -14.039275 6.074581 -7.378139 7.694258 4.027700 -3.432500 4.672400 -7.187969 -5.546605 3.111494 6.824883 -8.336613 -2.283433 56.608507 -51.173354 -41.525454 0.920589 -4.145193 -85.181238 17.111861 -11.460635 -3.838900 -7.125000 0.000000 0.000000 -4.136900 19.315200 2.542300 5.972946 5.929389 3.050993 8.424183 6.581548 -19.356190 -79.119511 56.400209 -52.404559 0.932833 -0.726526 -24.672777 -32.701118 7.959127 -5.951200 7.125000 0.000000 0.000000 -4.486100 -19.099000 -2.779800 
1.038676 17.475190 -3.253649 -174.601514 -14.969755 161.543870 7.447289 1.732899 -1.438106 -12.592846 5.568444 11.102230 2.499307 8.482772 27.907868 1.156754 1.769045 16.296476 1.867100 -8.583600 -24.501200 -12.781359 -2.784128 -5.742288 40.738640 -9.633492 16.044223 -2.396100 -7.609269 24.251186 4.318084 -16.073716 -1.643792 -0.093500 -1.971600 5.427100 1.265903 -1.056254 17.399282 0.623781 -1.635500 -2.407525 5.295887 -0.693513 0.752286 -6.165949 -5.748849 -14.079792 6.054353 -7.477051 7.760656 4.011700 -3.486400 4.780600 -7.048667 -5.664635 3.165119 8.812219 -8.890595 -3.963080 55.992752 -50.997105 -40.646760 0.984083 -4.227940 -86.007539 16.449685 -11.337982 -3.681400 -7.125000 0.000000 0.000000 -4.537900 19.488200 2.772700 5.984772 6.053807 2.853495 5.908800 7.596810 -21.447280 -78.373264 56.611707 -51.683221 0.910886 -0.662432 -24.794751 -33.207807 8.108735 -6.115600 7.125000 0.000000 0.000000 -4.837000 -18.950400 -3.014800 
1.043054 17.467528 -3.250664 -174.584371 -15.101667 161.539391 7.447549 1.731697 -1.454762 -12.549763 5.757585 11.503955 2.451858 8.378208 27.586357 1.100370 1.856962 15.959818 1.941900 -8.743900 -24.997400 -12.787554 -2.792099 -5.713424 40.820497 -9.537044 15.893373 -2.439440 -7.692628 24.518662 4.347334 -16.157008 -1.867377 -0.095400 -1.991700 5.482800 1.181300 -1.082691 17.326503 0.626806 -1.677481 -2.421758 5.439147 -0.704453 0.659121 -6.234193 -5.814744 -14.112921 6.033182 -7.549510 7.822491 3.972100 -3.526400 4.877700 -6.885840 -5.780627 3.222443 10.766131 -9.387531 -5.621432 55.393897 -50.856367 -39.744768 1.044422 -4.298048 -86.945093 15.946442 -11.174066 -3.545800 -7.125000 0.000000 0.000000 -4.832800 19.678400 2.933500 5.982403 6.187025 2.642018 3.464703 8.709905 -23.577778 -77.566166 56.849667 -50.858616 0.894733 -0.618814 -24.942966 -33.605607 8.185049 -6.224600 7.125000 0.000000 0.000000 -5.113900 -18.871700 -3.197600 
1.045741 17.460164 -3.246683 -174.582566 -15.252826 161.534670 7.447095 1.730084 -1.471867 -12.545503 5.924074 11.931088 2.385627 8.241135 27.158885 1.041026 1.953535 15.621073 2.040400 -8.949700 -25.638200 -12.793061 -2.798503 -5.688383 40.872538 -9.454692 15.750165 -2.483627 -7.774385 24.785418 4.373178 -16.229532 -2.109746 -0.100900 -2.048400 5.639500 1.097327 -1.108076 17.254726 0.630456 -1.719348 -2.433164 5.570187 -0.715372 0.581545 -6.323019 -5.895257 -14.160306 6.018965 -7.639823 7.882652 3.942000 -3.574300 4.983700 -6.714482 -5.891703 3.272320 12.674927 -9.918333 -7.337078 54.776139 -50.757097 -38.754559 1.092794 -4.341529 -87.892527 15.570267 -10.961362 -3.420300 -7.125000 0.000000 0.000000 -5.055800 19.895300 3.045300 5.959912 6.316077 2.429654 1.103453 9.859175 -25.776487 -76.754974 57.118773 -50.007476 0.883467 -0.589067 -25.034110 -33.901378 8.148363 -6.246100 7.125000 0.000000 0.000000 -5.329900 -18.920000 -3.328100 
1.046935 17.453398 -3.242902 -174.546582 -15.372322 161.505028 7.443746 1.727968 -1.488568 -12.507298 6.086437 12.373951 2.304315 8.073503 26.641558 0.986411 2.032138 15.273409 2.150600 -9.172900 -26.337800 -12.798291 -2.805345 -5.664315 40.926707 -9.423815 15.616649 -2.521507 -7.850023 25.026600 4.385061 -16.263695 -2.269137 -0.104200 -2.081800 5.731900 1.081190 -1.130186 17.205714 0.635141 -1.747294 -2.444118 5.657793 -0.717926 0.494148 -6.409547 -5.980446 -14.212578 6.006482 -7.736010 7.935200 3.912800 -3.624600 5.094500 -6.536569 -6.002282 3.310039 14.535110 -10.478444 -9.085092 54.233581 -50.734857 -37.772821 1.130772 -4.358399 -88.804260 15.360381 -10.681267 -3.302100 -7.125000 0.000000 0.000000 -5.179500 20.163200 3.089300 5.922246 6.447585 2.222895 -1.137759 11.046149 -27.998280 -76.087392 57.417152 -49.274966 0.878153 -0.569957 -25.145734 -34.148593 8.013645 -6.199700 7.125000 0.000000 0.000000 -5.522400 -19.074100 -3.430500 
1.047333 17.448124 -3.239121 -174.551485 -15.519291 161.492965 7.439525 1.726418 -1.501230 -12.527649 6.218940 12.815250 2.206593 7.879707 26.041128 0.943227 2.083859 14.961470 2.174000 -9.219500 -26.484300 -12.803158 -2.809469 -5.642670 40.940385 -9.378845 15.499376 -2.558081 -7.914777 25.240489 4.400491 -16.307931 -2.433284 -0.106500 -2.103900 5.793000 0.996564 -1.160328 17.155744 0.642413 -1.793594 -2.458144 5.784909 -0.731574 0.393278 -6.510974 -6.056488 -14.257999 6.000227 -7.816539 7.998162 3.883700 -3.667900 5.212200 -6.351900 -6.108090 3.343023 16.326084 -11.011257 -10.808398 53.772720 -50.769358 -36.854984 1.159607 -4.361008 -89.637214 15.233556 -10.427293 -3.207400 -7.125000 0.000000 0.000000 -5.255900 20.396000 3.107600 5.871490 6.574078 2.015430 -3.270350 12.306348 -30.222681 -75.600189 57.759495 -48.661581 0.881942 -0.569973 -25.277719 -34.402421 7.807560 -6.122400 7.125000 0.000000 0.000000 -5.725500 -19.282200 -3.531200 
1.046239 17.443148 -3.235339 -174.531267 -15.649926 161.470099 7.432951 1.724823 -1.513902 -12.525652 6.345979 13.261234 2.101630 7.665869 25.380954 0.895049 2.158873 14.687194 2.155400 -9.182500 -26.367800 -12.808386 -2.812933 -5.625034 40.963380 -9.366672 15.402002 -2.586961 -7.968614 25.416055 4.413521 -16.345223 -2.578152 -0.110700 -2.144900 5.906100 0.967592 -1.189867 17.100727 0.650449 -1.832478 -2.468469 5.868255 -0.742080 0.316192 -6.606971 -6.136518 -14.317571 5.996572 -7.903309 8.050162 3.857600 -3.712600 5.325400 -6.172144 -6.199853 3.362714 18.060085 -11.604441 -12.564784 53.370140 -50.876358 -35.922265 1.162621 -4.327711 -90.152289 15.183493 -10.272617 -3.154200 -7.125000 0.000000 0.000000 -5.308400 20.521800 3.123900 5.814766 6.687699 1.825126 -5.294732 13.589538 -32.455595 -75.356868 58.140152 -48.267054 0.893826 -0.574705 -25.462205 -34.696468 7.430876 -5.942500 7.125000 0.000000 0.000000 -5.979700 -19.678200 -3.636600 
1.044248 17.438869 -3.231856 -174.538655 -15.784354 161.440073 7.426348 1.722927 -1.525869 -12.558306 6.479421 13.716480 1.991624 7.438181 24.677682 0.842398 2.248325 14.412428 2.180200 -9.231800 -26.523000 -12.811034 -2.812233 -5.613650 40.940857 -9.368693 15.331891 -2.613946 -8.013770 25.568915 4.425327 -16.378994 -2.706614 -0.112100 -2.159200 5.945700 0.907685 -1.223785 17.052436 0.659402 -1.881748 -2.476871 5.950279 -0.759756 0.249725 -6.691332 -6.209560 -14.372561 5.989547 -7.980715 8.092543 3.822200 -3.751900 5.421400 -5.994367 -6.277218 3.377366 19.752557 -12.232982 -14.347278 52.946005 -51.014402 -34.930985 1.141514 -4.267475 -90.431977 15.151113 -10.263686 -3.150900 -7.125000 0.000000 0.000000 -5.371700 20.491000 3.165100 5.757712 6.789005 1.648112 -7.316981 14.932376 -34.666250 -75.157123 58.563704 -47.879572 0.916005 -0.591828 -25.742665 -35.126305 6.965137 -5.739400 7.125000 0.000000 0.000000 -6.341000 -20.141800 -3.792800 
